:FULLY-SPECIFIED
:FORCE-ALL-JOINTS-BE-3DOF
:DEGREES
79
root 0.567678 17.4315 5.75419 0.600716 3.78605 2.53057
lfemur -15.9935 -2.02944 -25.9941
ltibia 46.3902 0 0
lfoot -12.4774 -1.01874 0
ltoes -15.3955 0 0
rfemur -13.1074 -10.4931 16.9689
rtibia 100.372 0 0
rfoot 20.1774 -6.55116 0
rtoes 22.3577 0 0
lowerback 18.0138 -0.801964 -4.50923
upperback 2.96233 -2.06706 -2.28032
thorax -6.81121 -0.923154 0.595324
lowerneck -6.19585 -0.677176 -1.84658
upperneck -9.6974 -0.611342 3.89798
head -1.93113 -0.288672 1.53142
lclavicle 1.983e-15 3.90393e-14 0
lhumerus -26.7816 -14.8292 86.4233
lradius 106.618 0 0
lwrist 29.7575 0 0
lhand -36.4275 8.17846 0
lfingers 7.12502 0 0
lthumb -9.52224 37.9407 0
rclavicle 1.983e-15 3.90393e-14 0
rhumerus -46.3932 6.84622 -85.3869
rradius 81.3984 0 0
rwrist 0.802333 0 0
rhand -44.6264 38.1241 0
rfingers 7.12502 0 0
rthumb -17.4242 8.88499 0
80
root 0.568352 17.4353 6.29352 0.500345 4.14784 2.74075
lfemur -15.7206 -2.49722 -26.4602
ltibia 44.5712 0 0
lfoot -13.2407 -0.921906 0
ltoes -15.5701 0 0
rfemur -13.066 -10.874 16.5522
rtibia 101.968 0 0
rfoot 21.1673 -6.55515 0
rtoes 23.2006 0 0
lowerback 18.0018 -0.802316 -4.74179
upperback 2.9811 -2.12177 -2.40234
thorax -6.78182 -0.944868 0.608901
lowerneck -6.32924 -0.775552 -1.92158
upperneck -9.50706 -0.721451 4.11283
head -1.85585 -0.346742 1.6142
lclavicle 2.43148e-15 3.98151e-14 0
lhumerus -26.2036 -14.9352 86.151
lradius 106.69 0 0
lwrist 29.6394 0 0
lhand -36.342 8.01836 0
lfingers 7.12502 0 0
lthumb -9.43969 37.785 0
rclavicle 2.43148e-15 3.98151e-14 0
rhumerus -46.8209 6.68642 -85.3096
rradius 80.8566 0 0
rwrist 0.90056 0 0
rhand -44.6268 38.1246 0
rfingers 7.12502 0 0
rthumb -17.4245 8.88558 0
81
root 0.569026 17.4391 6.83285 0.399974 4.50962 2.95093
lfemur -15.4477 -2.96499 -26.9264
ltibia 42.7523 0 0
lfoot -14.004 -0.825074 0
ltoes -15.7446 0 0
rfemur -13.0247 -11.2549 16.1355
rtibia 103.563 0 0
rfoot 22.1573 -6.55914 0
rtoes 24.0434 0 0
lowerback 17.9899 -0.802668 -4.97435
upperback 2.99988 -2.17648 -2.52436
thorax -6.75242 -0.966582 0.622477
lowerneck -6.46262 -0.873928 -1.99658
upperneck -9.31672 -0.831561 4.32769
head -1.78058 -0.404813 1.69699
lclavicle 2.87995e-15 4.05908e-14 0
lhumerus -25.6256 -15.0412 85.8787
lradius 106.763 0 0
lwrist 29.5212 0 0
lhand -36.2564 7.85826 0
lfingers 7.12502 0 0
lthumb -9.35714 37.6292 0
rclavicle 2.87995e-15 4.05908e-14 0
rhumerus -47.2485 6.52661 -85.2324
rradius 80.3149 0 0
rwrist 0.998786 0 0
rhand -44.6272 38.1252 0
rfingers 7.12502 0 0
rthumb -17.4249 8.88617 0
82
root 0.5697 17.4429 7.37217 0.299603 4.87141 3.16111
lfemur -15.1748 -3.43277 -27.3925
ltibia 40.9334 0 0
lfoot -14.7673 -0.728243 0
ltoes -15.9192 0 0
rfemur -12.9833 -11.6358 15.7188
rtibia 105.159 0 0
rfoot 23.1472 -6.56313 0
rtoes 24.8862 0 0
lowerback 17.9779 -0.80302 -5.20692
upperback 3.01865 -2.23119 -2.64639
thorax -6.72303 -0.988296 0.636054
lowerneck -6.59601 -0.972304 -2.07157
upperneck -9.12638 -0.94167 4.54254
head -1.7053 -0.462883 1.77977
lclavicle 3.32843e-15 4.13666e-14 0
lhumerus -25.0476 -15.1473 85.6064
lradius 106.835 0 0
lwrist 29.4031 0 0
lhand -36.1708 7.69816 0
lfingers 7.12502 0 0
lthumb -9.27459 37.4735 0
rclavicle 3.32843e-15 4.13666e-14 0
rhumerus -47.6762 6.36681 -85.1552
rradius 79.7731 0 0
rwrist 1.09701 0 0
rhand -44.6275 38.1257 0
rfingers 7.12502 0 0
rthumb -17.4252 8.88676 0
83
root 0.570374 17.4467 7.9115 0.199232 5.2332 3.37129
lfemur -14.9019 -3.90054 -27.8586
ltibia 39.1145 0 0
lfoot -15.5306 -0.631412 0
ltoes -16.0937 0 0
rfemur -12.9419 -12.0167 15.3021
rtibia 106.754 0 0
rfoot 24.1372 -6.56712 0
rtoes 25.729 0 0
lowerback 17.966 -0.803372 -5.43948
upperback 3.03742 -2.2859 -2.76841
thorax -6.69363 -1.01001 0.649631
lowerneck -6.7294 -1.07068 -2.14657
upperneck -8.93604 -1.05178 4.7574
head -1.63002 -0.520954 1.86256
lclavicle 3.77691e-15 4.21423e-14 0
lhumerus -24.4696 -15.2533 85.3341
lradius 106.908 0 0
lwrist 29.285 0 0
lhand -36.0852 7.53806 0
lfingers 7.12502 0 0
lthumb -9.19204 37.3177 0
rclavicle 3.77691e-15 4.21423e-14 0
rhumerus -48.1038 6.20701 -85.078
rradius 79.2314 0 0
rwrist 1.19524 0 0
rhand -44.6279 38.1263 0
rfingers 7.12502 0 0
rthumb -17.4256 8.88735 0
84
root 0.57509 17.448 8.45252 0.189849 4.95331 3.28271
lfemur -14.5062 -3.51803 -27.5382
ltibia 40.5149 0 0
lfoot -14.5083 -0.629568 0
ltoes -15.8839 0 0
rfemur -13.0998 -11.6042 15.5979
rtibia 105.059 0 0
rfoot 23.3017 -6.56353 0
rtoes 25.3145 0 0
lowerback 17.9565 -0.823509 -5.26274
upperback 3.00476 -2.27125 -2.66713
thorax -6.72641 -1.00613 0.654998
lowerneck -6.72593 -0.973548 -2.09269
upperneck -8.9193 -0.936933 4.53947
head -1.62396 -0.46278 1.78588
lclavicle 2.89935e-15 4.15605e-14 0
lhumerus -24.9875 -15.3598 85.5559
lradius 106.876 0 0
lwrist 29.2485 0 0
lhand -36.1243 7.57207 0
lfingers 7.12502 0 0
lthumb -9.22973 37.3499 0
rclavicle 2.89935e-15 4.15605e-14 0
rhumerus -47.8707 6.34789 -85.0783
rradius 79.5366 0 0
rwrist 1.0856 0 0
rhand -44.6248 38.1377 0
rfingers 7.12502 0 0
rthumb -17.4226 8.89852 0
